<?xml version="1.0" standalone="no"?>
<!DOCTYPE svg PUBLIC "-//W3C//DTD SVG 20010904//EN"
 "http://www.w3.org/TR/2001/REC-SVG-20010904/DTD/svg10.dtd">
<svg version="1.0" xmlns="http://www.w3.org/2000/svg"
 width="602.000000pt" height="602.000000pt" viewBox="0 0 602.000000 602.000000"
 preserveAspectRatio="xMidYMid meet">
<metadata>
Created by potrace 1.14, written by Peter Selinger 2001-2017
</metadata>
<g transform="translate(0.000000,602.000000) scale(0.100000,-0.100000)"
fill="#000000" stroke="none">
<path d="M2483 4547 c-589 -340 -543 -300 -421 -366 l63 -33 435 252 c239 139
442 255 452 257 9 3 205 -104 460 -252 l443 -257 63 33 c121 66 167 26 -419
364 -286 165 -528 301 -537 302 -9 1 -252 -134 -539 -300z"/>
<path d="M2563 4332 l-413 -237 0 -477 c0 -322 3 -478 10 -478 6 0 44 19 85
43 l75 42 2 390 3 389 130 78 c72 42 133 77 138 78 4 0 7 -57 7 -126 0 -69 3
-124 8 -122 4 2 42 22 85 46 l77 43 0 132 1 132 107 61 107 61 3 91 c1 51 -1
92 -5 92 -4 0 -194 -107 -420 -238z"/>
<path d="M3052 4478 l3 -92 330 -191 330 -191 3 -162 c1 -89 0 -162 -3 -162
-3 0 -53 27 -110 60 -57 33 -106 60 -109 60 -4 0 -6 -42 -6 -92 l0 -93 115
-65 114 -65 1 -130 0 -130 74 -42 c40 -24 78 -43 84 -43 9 0 12 124 12 478 l0
477 -413 238 c-228 130 -417 237 -421 237 -4 0 -5 -41 -4 -92z"/>
<path d="M2918 4281 l-97 -56 -1 -111 0 -112 100 -57 100 -56 195 112 194 112
-132 77 c-73 42 -162 93 -197 112 l-65 35 -97 -56z"/>
<path d="M1922 3578 l3 -612 525 -303 c288 -167 528 -303 533 -303 4 0 6 41 5
92 l-3 91 -442 256 -442 256 -3 519 -3 520 -83 48 c-46 26 -86 48 -88 48 -2 0
-3 -275 -2 -612z"/>
<path d="M4025 4141 l-80 -48 -3 -519 -3 -519 -442 -256 -442 -255 -3 -92 c-1
-51 1 -92 5 -92 4 0 244 136 533 303 l525 303 3 612 c1 337 -1 612 -5 612 -5
-1 -44 -22 -88 -49z"/>
<path d="M3232 3944 l-213 -124 -104 60 c-57 33 -111 60 -119 60 -9 0 -50 -19
-91 -42 -65 -36 -72 -43 -57 -53 9 -7 97 -58 194 -114 l178 -102 192 112 c106
61 207 120 223 130 l31 18 94 -54 c52 -30 99 -55 103 -55 4 0 6 41 5 92 l-3
92 -90 52 c-49 29 -99 53 -110 53 -11 -1 -116 -57 -233 -125z"/>
<path d="M2445 4006 l-70 -43 -3 -109 -2 -109 225 -130 225 -130 -2 -150 -3
-150 -115 -67 c-63 -37 -121 -67 -129 -68 -8 0 -61 27 -118 60 l-105 60 -79
-43 c-43 -23 -79 -45 -79 -48 0 -8 815 -479 829 -479 19 0 831 473 826 481 -3
4 -39 26 -79 49 l-74 41 -331 -191 c-181 -104 -335 -190 -341 -190 -7 0 -73
35 -146 77 -116 67 -132 80 -118 90 9 7 66 40 125 75 l109 62 0 242 0 242
-222 129 -223 128 -3 108 c-2 76 -6 107 -15 107 -7 0 -43 -20 -82 -44z"/>
<path d="M3233 3684 l-183 -106 0 -259 0 -259 -76 -42 c-131 -74 -129 -67 -36
-120 l82 -46 99 56 100 57 1 260 0 261 110 63 110 63 0 89 c0 65 -3 89 -12 88
-7 0 -95 -47 -195 -105z"/>
<path d="M2370 3448 l1 -223 99 -57 100 -57 100 57 100 57 0 110 0 110 -194
113 c-106 61 -196 112 -200 112 -3 0 -6 -100 -6 -222z"/>
<path d="M3368 3504 l-98 -56 0 -225 0 -225 63 35 c34 20 123 71 197 114 l135
79 3 109 2 110 -96 55 c-52 30 -99 56 -102 57 -4 1 -51 -23 -104 -53z"/>
<path d="M1870 1590 c0 -19 6 -20 110 -20 l110 0 0 -265 0 -265 50 0 50 0 0
265 0 265 116 0 c105 0 115 2 112 18 -3 16 -25 17 -276 20 -267 2 -272 2 -272
-18z"/>
<path d="M2642 1593 c-18 -35 -222 -534 -222 -543 0 -6 10 -10 23 -10 19 0 28
14 61 100 l38 100 92 0 93 0 39 -100 39 -100 54 0 c46 0 53 2 49 18 -8 29
-220 526 -231 540 -13 17 -25 15 -35 -5z m-5 -311 c-38 -2 -71 -1 -74 1 -3 4
51 149 64 171 3 5 23 -31 43 -80 l37 -89 -70 -3z"/>
<path d="M3034 1596 c-3 -8 40 -86 95 -174 l100 -161 3 -108 3 -108 48 -3 47
-3 0 107 0 107 102 169 c79 131 99 171 89 181 -21 21 -41 -3 -126 -151 l-83
-143 -82 143 c-46 79 -88 146 -94 150 -20 14 -96 9 -102 -6z"/>
<path d="M3666 1598 c-3 -7 -7 -101 -9 -209 -5 -220 1 -257 53 -300 98 -83
299 -60 367 42 l28 43 0 215 c0 185 -2 216 -15 216 -13 0 -16 -32 -20 -205 -7
-236 -13 -259 -83 -291 -48 -21 -133 -25 -172 -7 -51 23 -58 54 -64 288 l-6
215 -38 3 c-24 2 -39 -1 -41 -10z"/>
<path d="M4248 1605 c-5 -5 -8 -134 -8 -287 l0 -278 50 0 50 0 0 130 0 130 78
0 c125 0 184 46 184 145 0 106 -68 152 -237 161 -61 4 -113 3 -117 -1z m212
-72 c52 -47 51 -143 -2 -177 -13 -8 -44 -18 -70 -21 l-48 -7 0 116 0 116 45 0
c35 0 52 -6 75 -27z"/>
<path d="M1488 1585 c-29 -16 -68 -88 -68 -126 1 -54 36 -105 100 -145 145
-91 167 -116 154 -170 -21 -83 -156 -86 -214 -4 -18 25 -25 28 -36 19 -21 -17
-17 -28 19 -61 95 -90 252 -76 298 25 24 54 24 91 -1 142 -16 33 -39 54 -111
101 -98 63 -129 94 -129 128 0 70 90 92 149 37 18 -17 38 -28 47 -24 18 7 18
13 -1 39 -34 49 -148 70 -207 39z"/>
</g>
</svg>
